PathFileType	4	(X/Y/Z)	C:\Users\Graham\Documents\MATLAB\MOtoNMS_v2_2\MyData\ElaboratedData\S3\17-05-18\staticElaborations\Static1\Static1\\Static1.trc
DataRate	CameraRate	NumFrames	NumMarkers	Units	OrigDataRate	DataStartFrame
100	100	4	38	mm	100	2
Frame#	Time	V_Sacral			R_ASIS			L_ASIS			R_Knee_Lat			R_Knee_Med			R_Thigh_Upper			R_Thigh_Front			R_Thigh_Rear			L_Knee_Lat			L_Knee_Med			L_Thigh_Upper			L_Thigh_Front			L_Thigh_Rear			R_Ankle_Lat			R_Ankle_Med			R_Shank_Upper			R_Shank_Front			R_Shank_Rear			L_Ankle_Lat			L_Ankle_Med			L_Shank_Upper			L_Shank_Front			L_Shank_Rear			R_Heel			R_MTP1			R_MTP5			L_Heel			L_MTP1			L_MTP5			Clavicle			R_Acromium			L_Acromium			LAJC			RAJC			LHJC			RHJC			LKJC			RKJC		
		X1	Y1	Z1	X2	Y2	Z2	X3	Y3	Z3	X4	Y4	Z4	X5	Y5	Z5	X6	Y6	Z6	X7	Y7	Z7	X8	Y8	Z8	X9	Y9	Z9	X10	Y10	Z10	X11	Y11	Z11	X12	Y12	Z12	X13	Y13	Z13	X14	Y14	Z14	X15	Y15	Z15	X16	Y16	Z16	X17	Y17	Z17	X18	Y18	Z18	X19	Y19	Z19	X20	Y20	Z20	X21	Y21	Z21	X22	Y22	Z22	X23	Y23	Z23	X24	Y24	Z24	X25	Y25	Z25	X26	Y26	Z26	X27	Y27	Z27	X28	Y28	Z28	X29	Y29	Z29	X30	Y30	Z30	X31	Y31	Z31	X32	Y32	Z32	X33	Y33	Z33	X34	Y34	Z34	X35	Y35	Z35	X36	Y36	Z36	X37	Y37	Z37	X38	Y38	Z38	

177	1.760000	-52.306088	1040.658303	47.192608	143.043269	1005.834228	174.938968	143.254925	1003.262888	-70.658697	48.041110	523.307125	173.507371	28.150631	516.219107	58.572231	143.437709	741.712300	174.853498	134.618694	650.597530	135.413137	103.546931	651.159191	178.935729	55.240702	524.028623	-114.456651	51.890456	513.874182	5.168674	148.939378	776.993631	-95.391718	150.037507	675.422649	-59.971061	115.330729	676.468486	-109.615508	-8.643740	100.115941	146.077858	0.815166	111.501851	65.000654	59.027744	320.220040	133.091720	44.104119	226.971760	98.200987	33.889554	223.596908	155.889524	-6.388333	108.325244	-132.025097	4.696904	105.231732	-51.720514	62.923232	302.319738	-85.031213	46.300006	208.904284	-57.244388	51.965289	212.866633	-116.423639	-70.651706	49.491864	106.131497	138.371935	55.801790	81.315522	107.457327	51.126640	159.611603	-70.505805	51.158075	-105.135791	135.390977	53.612591	-76.554937	111.139694	49.856416	-153.637521	79.800417	1404.097713	59.920384	-2.609308	1424.968702	222.375626	17.748181	1439.616445	-117.455535	-0.845715	106.778488	-91.872806	-3.914287	105.808896	105.539256	71.182094	930.936186	-35.507761	71.029820	932.786119	141.185893	53.565579	518.951402	-54.643988	38.095870	519.763116	116.039801	
178	1.770000	-52.260042	1040.661480	47.094248	143.109672	1005.830938	174.811092	143.281689	1003.259577	-70.784254	47.962148	523.311850	173.465296	28.081030	516.202744	58.518897	143.415426	741.684006	174.771175	134.567134	650.567933	135.340550	103.507739	651.146796	178.869606	55.201024	524.020564	-114.531126	51.850133	513.873256	5.100099	148.923990	776.966222	-95.496179	150.024237	675.400716	-60.074699	115.312399	676.450304	-109.710027	-8.651157	100.118185	146.061464	0.802880	111.495969	64.990644	58.976272	320.235123	133.073309	44.068018	226.978120	98.188302	33.847909	223.608760	155.873610	-6.394651	108.313033	-132.033508	4.690894	105.230807	-51.731819	62.892128	302.323090	-85.072793	46.347738	208.966909	-57.269871	51.946548	212.860973	-116.445460	-70.661016	49.493872	106.132017	138.369983	55.796153	81.311501	107.456143	51.128884	159.611000	-70.510058	51.151188	-105.140913	135.389085	53.612588	-76.557399	111.138290	49.855367	-153.639627	79.851824	1404.115368	59.774485	-2.595731	1424.980254	222.219613	17.814539	1439.620158	-117.613315	-0.851879	106.771920	-91.882663	-3.924139	105.807077	105.526054	71.212066	930.935951	-35.622106	71.088309	932.785901	141.070018	53.525578	518.946910	-54.715514	38.021589	519.757297	115.992097	
179	1.780000	-52.213239	1040.664183	46.995487	143.179556	1005.825703	174.685412	143.312850	1003.252817	-70.908681	47.880984	523.313820	173.427288	28.009445	516.187510	58.467587	143.393186	741.656052	174.691259	134.513710	650.538934	135.269418	103.467405	651.134557	178.805755	55.155762	524.012570	-114.605698	51.802070	513.870152	5.031211	148.914712	776.938467	-95.598238	150.007331	675.376023	-60.175683	115.292415	676.429718	-109.804521	-8.659084	100.119788	146.048062	0.792385	111.491493	64.981868	58.922970	320.249644	133.055015	44.031942	226.984966	98.175917	33.805911	223.620282	155.858036	-6.401521	108.300328	-132.042216	4.684323	105.229798	-51.743189	62.857441	302.326455	-85.113962	46.396167	209.032945	-57.296461	51.926373	212.855170	-116.468380	-70.668575	49.495002	106.131626	138.368455	55.792545	81.307192	107.454741	51.130648	159.610908	-70.514768	51.143969	-105.146075	135.385959	53.611038	-76.559788	111.136554	49.854174	-153.642408	79.907249	1404.130826	59.628758	-2.574410	1424.989491	222.064874	17.879106	1439.618253	-117.767456	-0.858599	106.765063	-91.892702	-3.933349	105.805640	105.514965	71.244799	930.932914	-35.734971	71.148902	932.783962	140.956327	53.478916	518.941361	-54.787243	37.945215	519.750665	115.947437	
180	1.790000	-52.165965	1040.666763	46.896265	143.250943	1005.818668	174.562706	143.348772	1003.242579	-71.030735	47.800597	523.313371	173.392358	27.939731	516.173705	58.417879	143.372355	741.629359	174.613121	134.461020	650.511338	135.199341	103.428032	651.123106	178.743480	55.104891	524.004807	-114.680164	51.745255	513.865794	4.961945	148.912823	776.910636	-95.697194	149.986220	675.349011	-60.272218	115.271028	676.406879	-109.897957	-8.666750	100.120944	146.037283	0.783801	111.488224	64.974374	58.870186	320.263227	133.036859	43.997798	226.992051	98.163986	33.764663	223.631288	155.842920	-6.409027	108.287278	-132.051337	4.677268	105.228950	-51.754508	62.819038	302.330098	-85.154807	46.442958	209.100675	-57.324124	51.904619	212.849508	-116.492594	-70.674771	49.495769	106.130983	138.367690	55.791010	81.302528	107.453313	51.131958	159.611436	-70.519869	51.136452	-105.151138	135.381444	53.607939	-76.561773	111.134511	49.852917	-153.645906	79.965507	1404.143907	59.483137	-2.545252	1424.997458	221.911350	17.940851	1439.611196	-117.918345	-0.865880	106.758114	-91.902923	-3.941475	105.804584	105.505828	71.280314	930.927322	-35.845828	71.209931	932.780676	140.845039	53.425073	518.935300	-54.859109	37.870164	519.743538	115.905119	
